<svg xmlns="http://www.w3.org/2000/svg" viewBox="0 0 512 512" width="512" height="512">
  <rect width="512" height="512" rx="116" fill="#ffffff"/>
  <g transform="translate(74.00 338.58)">
    <path d="M8.29-82.58Q8.29-108.34 18.80-127.58Q29.30-146.82 48.10-157.18Q66.90-167.54 91.17-167.54L91.17-167.54Q122.25-167.54 143.12-151.26Q163.98-134.98 170.50-105.38L170.50-105.38L116.62-105.38Q109.82-124.32 90.28-124.32L90.28-124.32Q76.37-124.32 68.08-113.52Q59.79-102.71 59.79-82.58L59.79-82.58Q59.79-62.46 68.08-51.65Q76.37-40.85 90.28-40.85L90.28-40.85Q109.82-40.85 116.62-59.79L116.62-59.79L170.50-59.79Q163.98-30.78 142.97-14.21Q121.95 2.37 91.17 2.37L91.17 2.37Q66.90 2.37 48.10-7.99Q29.30-18.35 18.80-37.59Q8.29-56.83 8.29-82.58L8.29-82.58Z" fill="#1b1b1b"/>
    <path d="M292.07-166.94Q321.08-166.94 338.40-148.15Q355.71-129.35 355.71-96.50L355.71-96.50L355.71 0L305.39 0L305.39-89.69Q305.39-106.26 296.81-115.44Q288.22-124.62 273.72-124.62L273.72-124.62Q259.22-124.62 250.63-115.44Q242.05-106.26 242.05-89.69L242.05-89.69L242.05 0L191.43 0L191.43-165.17L242.05-165.17L242.05-143.26Q249.74-154.22 262.77-160.58Q275.79-166.94 292.07-166.94L292.07-166.94Z" fill="#fb5a3c"/>
  </g>
</svg>
